# File generated by ImageToStl.com - Free Image and 3D model conversion tools

o obj1
v -25.748953 4.89898 20.20726
v -25.748953 -4.89898 20.20726
v -17.117117 19.849758 32.414519
v -22.861904 0 24.290163
v -17.117117 -19.849758 32.414519
v -14.28869 -14.849242 36.414519
v -11.460263 -19.849758 40.414519
v -5.715476 0 48.538874
v -2.828427 -4.89898 52.621778
v -2.828427 4.89898 52.621778
v -11.460263 19.849758 40.414519
v -14.28869 14.849242 36.414519
v -22.920526 0 12.207259
v -8.631836 24.748737 32.414519
v -11.430952 19.79899 28.331615
v 8.631836 24.748737 20.20726
v 5.715476 19.79899 16.207259
v 11.460263 19.849758 12.207259
v -2.857738 4.949747 4.082904
v 2.828427 4.89898 0
v -5.656854 0 0
v -20.004166 4.949747 16.207259
v 5.656854 0 52.621778
v 2.857738 4.949747 48.538874
v 22.920526 0 40.414519
v 20.004166 4.949747 36.414519
v 25.748953 4.89898 32.414519
v 11.430952 19.79899 24.290163
v 17.117117 19.849758 20.20726
v -5.715476 19.79899 36.414519
v -8.631836 -24.748737 32.414519
v -5.715476 -19.79899 36.414519
v 25.748953 -4.89898 32.414519
v 8.631836 -24.748737 20.20726
v 2.857738 -4.949747 48.538874
v 20.004166 -4.949747 36.414519
v 17.117117 -19.849758 20.20726
v 11.430952 -19.79899 24.290163
v -20.004166 -4.949747 16.207259
v 11.460263 -19.849758 12.207259
v -11.430952 -19.79899 28.331615
v 5.715476 -19.79899 16.207259
v 2.828427 -4.89898 0
v -2.857738 -4.949747 4.082904
v -12.247449 -14.849242 34.971143
v -20.820663 0 22.846788
v -12.247449 14.849242 34.971143
v -3.674235 0 47.095499
v 14.28869 14.849242 16.207259
v 5.715476 0 4.082904
v 14.28869 -14.849242 16.207259
v 22.861904 0 28.331615
v -10.410331 18.031223 29.774991
v -18.983546 3.181981 17.650635
v 6.736097 18.031223 17.650635
v -1.837117 3.181981 5.526279
v 1.837117 3.181981 47.095499
v -6.736097 18.031223 34.971143
v 18.983546 3.181981 34.971143
v 10.410331 18.031223 22.846788
v 1.837117 -3.181981 47.095499
v -6.736097 -18.031223 34.971143
v 10.410331 -18.031223 22.846788
v 18.983546 -3.181981 34.971143
v -18.983546 -3.181981 17.650635
v -10.410331 -18.031223 29.774991
v -1.837117 -3.181981 5.526279
v 6.736097 -18.031223 17.650635
v -9.419022 16.314224 38.971143
v -2.828427 4.89898 48.291651
v -2.828427 -4.89898 48.291651
v -9.419022 -16.314224 38.971143
v -21.66647 4.89898 21.650635
v -21.66647 -4.89898 21.650635
v -15.075876 16.314224 30.971143
v -15.075876 -16.314224 30.971143
v 20.820663 0 29.774991
v 12.247449 14.849242 17.650635
v 3.674235 0 5.526279
v 12.247449 -14.849242 17.650635
v -5.656854 0 4.330127
v 2.828427 4.89898 4.330127
v -18.838043 0 13.650635
v 9.419022 16.314224 13.650635
v 6.590594 21.213203 21.650635
v -6.590594 21.213203 30.971143
v 15.075876 16.314224 21.650635
v 21.66647 4.89898 30.971143
v 18.838043 0 38.971143
v 5.656854 0 48.291651
v 21.66647 -4.89898 30.971143
v 15.075876 -16.314224 21.650635
v 6.590594 -21.213203 21.650635
v -6.590594 -21.213203 30.971143
v 9.419022 -16.314224 13.650635
v 2.828427 -4.89898 4.330127
v -2.748953 4.89898 20.20726
v -2.748953 -4.89898 20.20726
v 5.882883 19.849758 32.414519
v 0.138096 0 24.290163
v 5.882883 -19.849758 32.414519
v 8.71131 -14.849242 36.414519
v 11.539737 -19.849758 40.414519
v 17.284524 0 48.538874
v 20.171573 -4.89898 52.621778
v 20.171573 4.89898 52.621778
v 11.539737 19.849758 40.414519
v 8.71131 14.849242 36.414519
v 0.079474 0 12.207259
v 14.368164 24.748737 32.414519
v 11.569048 19.79899 28.331615
v 31.631836 24.748737 20.20726
v 28.715476 19.79899 16.207259
v 34.460263 19.849758 12.207259
v 20.142262 4.949747 4.082904
v 25.828427 4.89898 0
v 17.343146 0 0
v 2.995834 4.949747 16.207259
v 28.656854 0 52.621778
v 25.857738 4.949747 48.538874
v 45.920526 0 40.414519
v 43.004166 4.949747 36.414519
v 48.748953 4.89898 32.414519
v 34.430952 19.79899 24.290163
v 40.117117 19.849758 20.20726
v 17.284524 19.79899 36.414519
v 14.368164 -24.748737 32.414519
v 17.284524 -19.79899 36.414519
v 48.748953 -4.89898 32.414519
v 31.631836 -24.748737 20.20726
v 25.857738 -4.949747 48.538874
v 43.004166 -4.949747 36.414519
v 40.117117 -19.849758 20.20726
v 34.430952 -19.79899 24.290163
v 2.995834 -4.949747 16.207259
v 34.460263 -19.849758 12.207259
v 11.569048 -19.79899 28.331615
v 28.715476 -19.79899 16.207259
v 25.828427 -4.89898 0
v 20.142262 -4.949747 4.082904
v 10.752551 -14.849242 34.971143
v 2.179337 0 22.846788
v 10.752551 14.849242 34.971143
v 19.325765 0 47.095499
v 37.28869 14.849242 16.207259
v 28.715476 0 4.082904
v 37.28869 -14.849242 16.207259
v 45.861904 0 28.331615
v 12.589669 18.031223 29.774991
v 4.016454 3.181981 17.650635
v 29.736097 18.031223 17.650635
v 21.162883 3.181981 5.526279
v 24.837117 3.181981 47.095499
v 16.263903 18.031223 34.971143
v 41.983546 3.181981 34.971143
v 33.410331 18.031223 22.846788
v 24.837117 -3.181981 47.095499
v 16.263903 -18.031223 34.971143
v 33.410331 -18.031223 22.846788
v 41.983546 -3.181981 34.971143
v 4.016454 -3.181981 17.650635
v 12.589669 -18.031223 29.774991
v 21.162883 -3.181981 5.526279
v 29.736097 -18.031223 17.650635
v 13.580978 16.314224 38.971143
v 20.171573 4.89898 48.291651
v 20.171573 -4.89898 48.291651
v 13.580978 -16.314224 38.971143
v 1.33353 4.89898 21.650635
v 1.33353 -4.89898 21.650635
v 7.924124 16.314224 30.971143
v 7.924124 -16.314224 30.971143
v 43.820663 0 29.774991
v 35.247449 14.849242 17.650635
v 26.674235 0 5.526279
v 35.247449 -14.849242 17.650635
v 17.343146 0 4.330127
v 25.828427 4.89898 4.330127
v 4.161957 0 13.650635
v 32.419022 16.314224 13.650635
v 29.590594 21.213203 21.650635
v 16.409406 21.213203 30.971143
v 38.075876 16.314224 21.650635
v 44.66647 4.89898 30.971143
v 41.838043 0 38.971143
v 28.656854 0 48.291651
v 44.66647 -4.89898 30.971143
v 38.075876 -16.314224 21.650635
v 29.590594 -21.213203 21.650635
v 16.409406 -21.213203 30.971143
v 32.419022 -16.314224 13.650635
v 25.828427 -4.89898 4.330127
vn -0.8165 0 0.57735
vn -0.94281 -0 -0.33333
vn -0.40825 0.70711 -0.57735
vn -0.4714 0.8165 0.33333
vn 0.40825 0.70711 0.57735
vn -0 0 1
vn 0.40825 -0.70711 0.57735
vn -0.4714 -0.8165 0.33333
vn -0.40825 -0.70711 -0.57735
vn -0 -0 -1
vn 0.8165 0 -0.57735
vn 0.4714 0.8165 -0.33333
vn 0.94281 0 0.33333
vn 0.4714 -0.8165 -0.33333
f 1//1 2//1 3//1
f 4//1 2//1 5//1
f 6//1 5//1 7//1
f 8//1 7//1 9//1
f 3//1 9//1 10//1
f 3//1 10//1 11//1
f 3//1 2//1 4//1
f 12//1 3//1 4//1
f 6//1 7//1 8//1
f 3//1 12//1 9//1
f 12//1 8//1 9//1
f 4//1 5//1 6//1
f 2//2 1//2 13//2
f 1//3 3//3 13//3
f 13//3 3//3 14//3
f 15//3 14//3 16//3
f 17//3 16//3 18//3
f 19//3 18//3 20//3
f 13//3 20//3 21//3
f 13//3 14//3 15//3
f 19//3 13//3 22//3
f 13//3 15//3 22//3
f 17//3 18//3 19//3
f 13//3 19//3 20//3
f 15//3 16//3 17//3
f 14//4 3//4 11//4
f 11//5 10//5 14//5
f 14//5 10//5 23//5
f 24//5 23//5 25//5
f 26//5 25//5 27//5
f 28//5 27//5 29//5
f 14//5 29//5 16//5
f 14//5 23//5 24//5
f 28//5 14//5 30//5
f 14//5 24//5 30//5
f 26//5 27//5 28//5
f 14//5 28//5 29//5
f 24//5 25//5 26//5
f 23//6 10//6 9//6
f 9//7 7//7 31//7
f 32//7 9//7 31//7
f 25//7 9//7 33//7
f 23//7 9//7 25//7
f 34//7 32//7 31//7
f 33//7 9//7 35//7
f 33//7 36//7 37//7
f 33//7 35//7 36//7
f 37//7 38//7 34//7
f 36//7 38//7 37//7
f 38//7 32//7 34//7
f 32//7 35//7 9//7
f 7//8 5//8 31//8
f 5//9 2//9 13//9
f 39//9 5//9 13//9
f 34//9 5//9 40//9
f 31//9 5//9 34//9
f 21//9 39//9 13//9
f 40//9 5//9 41//9
f 40//9 42//9 43//9
f 40//9 41//9 42//9
f 43//9 44//9 21//9
f 42//9 44//9 43//9
f 44//9 39//9 21//9
f 39//9 41//9 5//9
f 45//5 46//5 6//5
f 6//5 46//5 4//5
f 46//7 47//7 12//7
f 4//7 46//7 12//7
f 48//3 45//3 8//3
f 8//3 45//3 6//3
f 47//9 48//9 8//9
f 12//9 47//9 8//9
f 43//10 21//10 20//10
f 43//11 20//11 18//11
f 49//11 43//11 29//11
f 29//11 43//11 18//11
f 50//11 51//11 43//11
f 40//11 43//11 37//11
f 27//11 49//11 29//11
f 50//11 43//11 49//11
f 51//11 52//11 33//11
f 37//11 51//11 33//11
f 37//11 43//11 51//11
f 33//11 52//11 27//11
f 52//11 49//11 27//11
f 18//12 16//12 29//12
f 15//11 53//11 54//11
f 22//11 15//11 54//11
f 17//9 55//9 53//9
f 15//9 17//9 53//9
f 55//1 17//1 56//1
f 56//1 17//1 19//1
f 56//5 19//5 54//5
f 54//5 19//5 22//5
f 27//13 25//13 33//13
f 30//11 24//11 57//11
f 58//11 30//11 57//11
f 26//3 59//3 24//3
f 24//3 59//3 57//3
f 26//1 28//1 59//1
f 59//1 28//1 60//1
f 60//7 28//7 30//7
f 58//7 60//7 30//7
f 37//14 34//14 40//14
f 61//11 35//11 32//11
f 62//11 61//11 32//11
f 38//5 63//5 32//5
f 32//5 63//5 62//5
f 36//1 64//1 38//1
f 38//1 64//1 63//1
f 64//9 36//9 35//9
f 61//9 64//9 35//9
f 65//11 66//11 41//11
f 39//11 65//11 41//11
f 44//7 67//7 65//7
f 39//7 44//7 65//7
f 68//1 67//1 42//1
f 42//1 67//1 44//1
f 68//3 42//3 66//3
f 66//3 42//3 41//3
f 47//11 69//11 70//11
f 45//11 71//11 72//11
f 73//11 46//11 74//11
f 73//11 75//11 46//11
f 76//11 45//11 72//11
f 45//11 48//11 71//11
f 71//11 48//11 70//11
f 75//11 69//11 47//11
f 46//11 76//11 74//11
f 46//11 45//11 76//11
f 48//11 47//11 70//11
f 47//11 46//11 75//11
f 49//9 52//9 77//9
f 78//9 49//9 77//9
f 50//7 49//7 78//7
f 79//7 50//7 78//7
f 52//3 51//3 77//3
f 77//3 51//3 80//3
f 51//5 50//5 80//5
f 80//5 50//5 79//5
f 56//7 81//7 82//7
f 56//7 54//7 83//7
f 55//7 82//7 84//7
f 55//7 56//7 82//7
f 53//7 85//7 86//7
f 75//7 53//7 86//7
f 85//7 55//7 84//7
f 83//7 81//7 56//7
f 73//7 54//7 75//7
f 73//7 83//7 54//7
f 54//7 53//7 75//7
f 53//7 55//7 85//7
f 60//9 85//9 87//9
f 60//9 58//9 86//9
f 59//9 87//9 88//9
f 59//9 60//9 87//9
f 57//9 89//9 90//9
f 70//9 57//9 90//9
f 89//9 59//9 88//9
f 86//9 85//9 60//9
f 69//9 58//9 70//9
f 69//9 86//9 58//9
f 58//9 57//9 70//9
f 57//9 59//9 89//9
f 64//3 89//3 91//3
f 63//3 92//3 93//3
f 63//3 94//3 62//3
f 62//3 94//3 72//3
f 63//3 93//3 94//3
f 71//3 62//3 72//3
f 90//3 89//3 61//3
f 90//3 61//3 71//3
f 62//3 71//3 61//3
f 61//3 89//3 64//3
f 64//3 91//3 92//3
f 64//3 92//3 63//3
f 68//5 93//5 95//5
f 67//5 96//5 81//5
f 67//5 83//5 65//5
f 65//5 83//5 74//5
f 67//5 81//5 83//5
f 76//5 65//5 74//5
f 94//5 93//5 66//5
f 94//5 66//5 76//5
f 65//5 76//5 66//5
f 66//5 93//5 68//5
f 68//5 95//5 96//5
f 68//5 96//5 67//5
f 86//14 69//14 75//14
f 74//13 83//13 73//13
f 72//12 94//12 76//12
f 90//10 71//10 70//10
f 79//1 96//1 80//1
f 77//1 91//1 88//1
f 80//1 91//1 77//1
f 78//1 87//1 84//1
f 79//1 84//1 82//1
f 77//1 88//1 87//1
f 80//1 92//1 91//1
f 95//1 92//1 80//1
f 95//1 80//1 96//1
f 77//1 87//1 78//1
f 96//1 79//1 82//1
f 78//1 84//1 79//1
f 84//8 87//8 85//8
f 96//6 82//6 81//6
f 88//2 91//2 89//2
f 92//4 95//4 93//4
f 97//1 98//1 99//1
f 100//1 98//1 101//1
f 102//1 101//1 103//1
f 104//1 103//1 105//1
f 99//1 105//1 106//1
f 99//1 106//1 107//1
f 99//1 98//1 100//1
f 108//1 99//1 100//1
f 102//1 103//1 104//1
f 99//1 108//1 105//1
f 108//1 104//1 105//1
f 100//1 101//1 102//1
f 98//2 97//2 109//2
f 97//3 99//3 109//3
f 109//3 99//3 110//3
f 111//3 110//3 112//3
f 113//3 112//3 114//3
f 115//3 114//3 116//3
f 109//3 116//3 117//3
f 109//3 110//3 111//3
f 115//3 109//3 118//3
f 109//3 111//3 118//3
f 113//3 114//3 115//3
f 109//3 115//3 116//3
f 111//3 112//3 113//3
f 110//4 99//4 107//4
f 107//5 106//5 110//5
f 110//5 106//5 119//5
f 120//5 119//5 121//5
f 122//5 121//5 123//5
f 124//5 123//5 125//5
f 110//5 125//5 112//5
f 110//5 119//5 120//5
f 124//5 110//5 126//5
f 110//5 120//5 126//5
f 122//5 123//5 124//5
f 110//5 124//5 125//5
f 120//5 121//5 122//5
f 119//6 106//6 105//6
f 105//7 103//7 127//7
f 128//7 105//7 127//7
f 121//7 105//7 129//7
f 119//7 105//7 121//7
f 130//7 128//7 127//7
f 129//7 105//7 131//7
f 129//7 132//7 133//7
f 129//7 131//7 132//7
f 133//7 134//7 130//7
f 132//7 134//7 133//7
f 134//7 128//7 130//7
f 128//7 131//7 105//7
f 103//8 101//8 127//8
f 101//9 98//9 109//9
f 135//9 101//9 109//9
f 130//9 101//9 136//9
f 127//9 101//9 130//9
f 117//9 135//9 109//9
f 136//9 101//9 137//9
f 136//9 138//9 139//9
f 136//9 137//9 138//9
f 139//9 140//9 117//9
f 138//9 140//9 139//9
f 140//9 135//9 117//9
f 135//9 137//9 101//9
f 141//5 142//5 102//5
f 102//5 142//5 100//5
f 142//7 143//7 108//7
f 100//7 142//7 108//7
f 144//3 141//3 104//3
f 104//3 141//3 102//3
f 143//9 144//9 104//9
f 108//9 143//9 104//9
f 139//10 117//10 116//10
f 139//11 116//11 114//11
f 145//11 139//11 125//11
f 125//11 139//11 114//11
f 146//11 147//11 139//11
f 136//11 139//11 133//11
f 123//11 145//11 125//11
f 146//11 139//11 145//11
f 147//11 148//11 129//11
f 133//11 147//11 129//11
f 133//11 139//11 147//11
f 129//11 148//11 123//11
f 148//11 145//11 123//11
f 114//12 112//12 125//12
f 111//11 149//11 150//11
f 118//11 111//11 150//11
f 113//9 151//9 149//9
f 111//9 113//9 149//9
f 151//1 113//1 152//1
f 152//1 113//1 115//1
f 152//5 115//5 150//5
f 150//5 115//5 118//5
f 123//13 121//13 129//13
f 126//11 120//11 153//11
f 154//11 126//11 153//11
f 122//3 155//3 120//3
f 120//3 155//3 153//3
f 122//1 124//1 155//1
f 155//1 124//1 156//1
f 156//7 124//7 126//7
f 154//7 156//7 126//7
f 133//14 130//14 136//14
f 157//11 131//11 128//11
f 158//11 157//11 128//11
f 134//5 159//5 128//5
f 128//5 159//5 158//5
f 132//1 160//1 134//1
f 134//1 160//1 159//1
f 160//9 132//9 131//9
f 157//9 160//9 131//9
f 161//11 162//11 137//11
f 135//11 161//11 137//11
f 140//7 163//7 161//7
f 135//7 140//7 161//7
f 164//1 163//1 138//1
f 138//1 163//1 140//1
f 164//3 138//3 162//3
f 162//3 138//3 137//3
f 143//11 165//11 166//11
f 141//11 167//11 168//11
f 169//11 142//11 170//11
f 169//11 171//11 142//11
f 172//11 141//11 168//11
f 141//11 144//11 167//11
f 167//11 144//11 166//11
f 171//11 165//11 143//11
f 142//11 172//11 170//11
f 142//11 141//11 172//11
f 144//11 143//11 166//11
f 143//11 142//11 171//11
f 145//9 148//9 173//9
f 174//9 145//9 173//9
f 146//7 145//7 174//7
f 175//7 146//7 174//7
f 148//3 147//3 173//3
f 173//3 147//3 176//3
f 147//5 146//5 176//5
f 176//5 146//5 175//5
f 152//7 177//7 178//7
f 152//7 150//7 179//7
f 151//7 178//7 180//7
f 151//7 152//7 178//7
f 149//7 181//7 182//7
f 171//7 149//7 182//7
f 181//7 151//7 180//7
f 179//7 177//7 152//7
f 169//7 150//7 171//7
f 169//7 179//7 150//7
f 150//7 149//7 171//7
f 149//7 151//7 181//7
f 156//9 181//9 183//9
f 156//9 154//9 182//9
f 155//9 183//9 184//9
f 155//9 156//9 183//9
f 153//9 185//9 186//9
f 166//9 153//9 186//9
f 185//9 155//9 184//9
f 182//9 181//9 156//9
f 165//9 154//9 166//9
f 165//9 182//9 154//9
f 154//9 153//9 166//9
f 153//9 155//9 185//9
f 160//3 185//3 187//3
f 159//3 188//3 189//3
f 159//3 190//3 158//3
f 158//3 190//3 168//3
f 159//3 189//3 190//3
f 167//3 158//3 168//3
f 186//3 185//3 157//3
f 186//3 157//3 167//3
f 158//3 167//3 157//3
f 157//3 185//3 160//3
f 160//3 187//3 188//3
f 160//3 188//3 159//3
f 164//5 189//5 191//5
f 163//5 192//5 177//5
f 163//5 179//5 161//5
f 161//5 179//5 170//5
f 163//5 177//5 179//5
f 172//5 161//5 170//5
f 190//5 189//5 162//5
f 190//5 162//5 172//5
f 161//5 172//5 162//5
f 162//5 189//5 164//5
f 164//5 191//5 192//5
f 164//5 192//5 163//5
f 182//14 165//14 171//14
f 170//13 179//13 169//13
f 168//12 190//12 172//12
f 186//10 167//10 166//10
f 175//1 192//1 176//1
f 173//1 187//1 184//1
f 176//1 187//1 173//1
f 174//1 183//1 180//1
f 175//1 180//1 178//1
f 173//1 184//1 183//1
f 176//1 188//1 187//1
f 191//1 188//1 176//1
f 191//1 176//1 192//1
f 173//1 183//1 174//1
f 192//1 175//1 178//1
f 174//1 180//1 175//1
f 180//8 183//8 181//8
f 192//6 178//6 177//6
f 184//2 187//2 185//2
f 188//4 191//4 189//4
# Vertices: 192, normals: 14, texture coordinates: 0, faces: 416

