# File generated by ImageToStl.com - Free Image and 3D model conversion tools

o obj1
v -17.579 8.13974 29.6985
v -8.13974 17.579 29.6985
v -21 4.71876 24.86048
v -4.71876 21 24.86048
v -4.71876 21 11.51132
v -8.13974 17.579 6.6733
v -17.579 8.13974 6.6733
v -21 4.71876 11.51132
v -21 -4.71876 24.86048
v -21 -4.71876 11.51132
v -12.8603 3.42098 0
v -12.8603 -3.42098 0
v -17.579 -8.13974 6.6733
v -17.579 -8.13974 29.6985
v -12.8603 -3.42098 36.3718
v -12.8603 3.42098 36.3718
v -3.42098 12.8603 0
v 4.71876 21 11.51132
v 8.13974 17.579 6.6733
v 3.42098 12.8603 0
v 4.71876 21 24.86048
v 3.42098 12.8603 36.3718
v 8.13974 17.579 29.6985
v -3.42098 12.8603 36.3718
v -8.13974 -17.579 6.6733
v -4.71876 -21 11.51132
v -8.13974 -17.579 29.6985
v -4.71876 -21 24.86048
v -3.42098 -12.8603 0
v 12.8603 3.42098 0
v 12.8603 -3.42098 0
v 3.42098 -12.8603 0
v -3.42098 -12.8603 36.3718
v 3.42098 -12.8603 36.3718
v 12.8603 -3.42098 36.3718
v 12.8603 3.42098 36.3718
v 17.579 8.13974 6.6733
v 17.579 8.13974 29.6985
v 21 4.71876 24.86048
v 21 4.71876 11.51132
v 4.71876 -21 24.86048
v 8.13974 -17.579 29.6985
v 4.71876 -21 11.51132
v 8.13974 -17.579 6.6733
v 17.579 -8.13974 6.6733
v 21 -4.71876 11.51132
v 17.579 -8.13974 29.6985
v 21 -4.71876 24.86048
vn -0.70711 0.70711 0
vn -0.70711 0.70711 0
vn -0.70711 0.70711 0
vn -0.70711 0.70711 -0
vn -0.70711 0.70711 0
vn -0.70711 0.70711 0
vn -1 0 0
vn -1 0 0
vn -0.8165 0 -0.57735
vn -0.8165 -0 -0.57735
vn -0.8165 0 -0.57735
vn -0.8165 -0 0.57735
vn -0.8165 0 0.57735
vn -0.8165 0 0.57735
vn -0.8165 0 0.57735
vn -0.5 0.5 -0.70711
vn 0 0.8165 -0.57735
vn 0 0.8165 -0.57735
vn -0 0.8165 -0.57735
vn 0 1 0
vn 0 0.8165 0.57735
vn 0 0.8165 0.57735
vn -0.5 0.5 0.70711
vn -0.70711 -0.70711 -0
vn -0.70711 -0.70711 0
vn -0.70711 -0.70711 0
vn -0.70711 -0.70711 0
vn -0.70711 -0.70711 0
vn -0.5 -0.5 -0.70711
vn 0 0 -1
vn 0 0 -1
vn -0 0 -1
vn 0 0 -1
vn 0 0 -1
vn -0 0 -1
vn 0 0 1
vn -0.5 -0.5 0.70711
vn 0.5 0.5 -0.70711
vn 0.70711 0.70711 0
vn 0.70711 0.70711 0
vn 0.70711 0.70711 0
vn 0.70711 0.70711 0
vn 0.70711 0.70711 0
vn 0.5 0.5 0.70711
vn 0 -0.8165 0.57735
vn 0 -0.8165 0.57735
vn -0 -0.8165 0.57735
vn 0 -1 0
vn 0 -0.8165 -0.57735
vn -0 -0.8165 -0.57735
vn 0 -0.8165 -0.57735
vn -0 -0.8165 -0.57735
vn 0.5 -0.5 -0.70711
vn 0.8165 -0 -0.57735
vn 0.8165 0 -0.57735
vn 0.8165 0 -0.57735
vn 0.8165 0 -0.57735
vn 0.8165 0 0.57735
vn 0.8165 0 0.57735
vn 0.8165 0 0.57735
vn 0.8165 0 0.57735
vn 0.5 -0.5 0.70711
vn 1 0 0
vn 1 0 0
vn 0.70711 -0.70711 0
vn 0.70711 -0.70711 -0
vn 0.70711 -0.70711 0
vn 0.70711 -0.70711 0
vn 0.70711 -0.70711 0
vn 0.70711 -0.70711 0
f 1//1 2//1 3//1
f 3//2 2//2 4//2
f 3//3 4//3 5//3
f 3//4 5//4 6//4
f 3//5 6//5 7//5
f 3//6 7//6 8//6
f 9//7 3//7 10//7
f 10//8 3//8 8//8
f 11//9 12//9 7//9
f 7//10 12//10 13//10
f 7//10 13//10 10//10
f 7//11 10//11 8//11
f 14//12 15//12 9//12
f 9//13 15//13 16//13
f 9//14 16//14 1//14
f 9//15 1//15 3//15
f 17//16 11//16 6//16
f 6//16 11//16 7//16
f 18//17 19//17 5//17
f 5//18 19//18 20//18
f 5//17 20//17 17//17
f 5//19 17//19 6//19
f 21//20 18//20 4//20
f 4//20 18//20 5//20
f 22//21 23//21 24//21
f 24//22 23//22 21//22
f 24//21 21//21 4//21
f 24//21 4//21 2//21
f 16//23 24//23 2//23
f 1//23 16//23 2//23
f 13//24 25//24 26//24
f 27//25 13//25 28//25
f 28//26 13//26 26//26
f 14//27 13//27 27//27
f 9//28 13//28 14//28
f 10//26 13//26 9//26
f 29//29 25//29 12//29
f 12//29 25//29 13//29
f 20//30 30//30 17//30
f 17//31 30//31 31//31
f 17//32 31//32 32//32
f 17//33 32//33 29//33
f 17//34 29//34 12//34
f 17//35 12//35 11//35
f 33//36 34//36 35//36
f 22//36 33//36 36//36
f 36//36 33//36 35//36
f 24//36 33//36 22//36
f 16//36 33//36 24//36
f 15//36 33//36 16//36
f 27//37 33//37 15//37
f 14//37 27//37 15//37
f 37//38 30//38 19//38
f 19//38 30//38 20//38
f 38//39 39//39 23//39
f 23//40 39//40 40//40
f 23//41 40//41 37//41
f 23//42 37//42 19//42
f 23//42 19//42 18//42
f 23//43 18//43 21//43
f 36//44 38//44 23//44
f 22//44 36//44 23//44
f 28//45 41//45 42//45
f 33//46 28//46 34//46
f 34//45 28//45 42//45
f 27//47 28//47 33//47
f 26//48 43//48 41//48
f 28//48 26//48 41//48
f 29//49 32//49 44//49
f 26//50 29//50 43//50
f 43//51 29//51 44//51
f 25//52 29//52 26//52
f 45//53 44//53 31//53
f 31//53 44//53 32//53
f 37//54 40//54 46//54
f 31//55 37//55 45//55
f 45//56 37//56 46//56
f 30//57 37//57 31//57
f 35//58 47//58 48//58
f 38//59 35//59 39//59
f 39//60 35//60 48//60
f 36//61 35//61 38//61
f 42//62 47//62 35//62
f 34//62 42//62 35//62
f 48//63 46//63 40//63
f 39//64 48//64 40//64
f 44//65 45//65 46//65
f 47//66 44//66 48//66
f 48//67 44//67 46//67
f 42//68 44//68 47//68
f 41//69 44//69 42//69
f 43//70 44//70 41//70
# Vertices: 48, normals: 70, texture coordinates: 0, faces: 92

